<svg xmlns="http://www.w3.org/2000/svg" xmlns:xlink="http://www.w3.org/1999/xlink" version="1.1" x="0px" y="0px" viewBox="0 0 100 125" style="enable-background:new 0 0 100 100;" xml:space="preserve"><path d="M51.1,20.7c-9.5,0-17.2,7.7-17.2,17.2c0,4.9,4.3,12.5,7.9,18c2.3,3.6,4.4,6.3,5.5,7.7c2.9,3.7,3.2,3.7,3.8,3.7  c0.6,0,0.9,0,3.8-3.6c1.1-1.4,3.2-4.2,5.5-7.7c3.6-5.5,7.9-13.1,7.9-18.1C68.3,28.4,60.6,20.7,51.1,20.7z M51.1,64  c-3.3-3.8-14.5-19.2-14.5-26.2c0-8,6.5-14.5,14.5-14.5s14.5,6.5,14.5,14.5C65.6,44.8,54.4,60.2,51.1,64z"/><path d="M51.1,28.9c-4.3,0-7.6,3.4-7.6,7.6c0,4.3,3.4,7.6,7.6,7.6c4.3,0,7.6-3.3,7.6-7.6C58.7,32.2,55.4,28.9,51.1,28.9z M51.1,41.4  c-2.7,0-4.9-2.2-4.9-4.9c0-2.7,2.2-4.9,4.9-4.9c2.8,0,4.9,2.2,4.9,4.9C56,39.2,53.8,41.4,51.1,41.4z"/><path d="M51.1,72.2c-3.9,0-23.6-0.3-23.6-5.3c0-0.9,0-3.3,11.5-4.6c0.7-0.1,1.4,0.4,1.5,1.2c0.1,0.7-0.4,1.4-1.2,1.5  c-5.4,0.6-7.9,1.5-8.8,2c1.8,1,8.8,2.6,20.6,2.6S69.9,68,71.7,67c-0.8-0.4-3.1-1.3-9.2-2c-0.7-0.1-1.3-0.7-1.2-1.5  c0.1-0.7,0.7-1.3,1.5-1.2c10.5,1.2,11.9,3,11.9,4.6C74.7,71.9,55.1,72.2,51.1,72.2z M72.1,67.2L72.1,67.2L72.1,67.2z"/><path d="M51.2,78.7C34.1,78.7,16,74.9,16,67.8c0-6.7,15.8-9.3,20.7-10c0.7-0.1,1.4,0.4,1.5,1.2c0.1,0.7-0.4,1.4-1.2,1.5  c-12,1.6-18.4,4.9-18.4,7.3c0,3.4,12.4,8.2,32.5,8.2s32.5-4.8,32.5-8.2c0-2.4-6.2-5.6-18-7.2c-0.7-0.1-1.2-0.8-1.1-1.5  s0.8-1.3,1.5-1.1c4.8,0.6,20.3,3.2,20.3,9.9C86.4,74.9,68.3,78.7,51.2,78.7z"/><text x="0" y="115" fill="#000000" font-size="5px" font-weight="bold" font-family="'Helvetica Neue', Helvetica, Arial-Unicode, Arial, Sans-serif"></text><text x="0" y="120" fill="#000000" font-size="5px" font-weight="bold" font-family="'Helvetica Neue', Helvetica, Arial-Unicode, Arial, Sans-serif"></text></svg>